<svg version="1.2" xmlns="http://www.w3.org/2000/svg" viewBox="0 0 626 501" width="500" height="400">
	<title>red-tractor-vehicle-illustration_1073071-41835</title>
	<style>
		.s0 { fill: #242053 } 
		.s1 { fill: #0d888d } 
		.s2 { fill: #aae7e2 } 
		.s3 { fill: #fdfefd } 
		.s4 { fill: #f76a69 } 
		.s5 { fill: #57cafd } 
	</style>
	<g id="Background">
		<path id="Path 0" fill-rule="evenodd" class="s0" d="m314 143c1.6 0 3.7 0.8 4.6 1.8 0.9 0.9 1.9 2.3 2.3 3 0.4 1 4.4 1.5 27.9 2.7l2-2.5c1.5-1.8 3-2.5 5.7-2.5 2.7 0 4.2 0.6 5.6 2.5 1.6 2 2 4.1 2 10 0 6-0.4 8.1-4.1 13l4 26.8c2.2 14.7 5 32.1 6.1 38.7 1.1 6.6 2.3 12.2 2.6 12.5 0.3 0.3 4.6 0.7 18.8 1.2v-53.4l6.4-5.3 0.1-15.5c0-13.2-0.3-15.9-1.8-18.5-1-1.7-3.5-4-5.5-5.3-2-1.2-3.7-3-3.7-4-0.1-0.9 0.6-2.3 1.5-3 1.2-1 2.1-1 4.7 0 1.8 0.7 4.7 2.9 6.6 4.8 1.9 2 3.9 5.7 4.8 8.5 0.9 3.3 1.4 9.7 1.4 33.5l5.5 4.8v53.2l3 0.5c1.6 0.2 8.2 0.7 14.5 1 6.3 0.4 15.6 1.3 20.5 2 4.9 0.8 11.5 2.3 14.5 3.4 3 1.1 7.7 3.9 10.4 6.3 2.7 2.4 5.8 6.1 6.9 8.3 1.8 3.3 2.2 6.2 2.4 16.2 0.2 10.1 0.6 12.3 1.8 12.3 0.8 0 5.6 2 10.5 4.5 6.7 3.3 8.9 5 8.7 6.2-0.2 1.4-1.4 1.9-6 2-4 0.2-5.6 0.7-5.3 1.5 0.2 0.7 0.7 2.9 1 4.8 0.5 2.4 0.1 4.6-1.1 7-1.4 2.7-2.5 3.5-4.8 3.7-1.6 0-3.4 0.2-4 0.2-0.6 0.1-0.3 0.6 0.5 1.1 0.8 0.5 4.9 0.9 9 0.8 5.7-0.1 8.5 0.4 11.5 1.9 2.2 1.1 5.7 4 7.8 6.4 2.1 2.4 5.3 7.5 7.2 11.4 1.9 3.9 3.5 8.2 3.5 9.7 0 1.6 0.3 2.6 0.8 2.4 0.4-0.2 0.5 3.9 0.4 9.2-0.2 5.4-1 12.6-1.8 16.2-0.9 3.6-3.1 9.4-4.9 13-1.9 3.6-5.8 8.9-8.7 11.8-2.9 2.8-8 6.6-17.3 11.2l10.5-0.1c5.8 0 24.5 0 41.5 0 20.4 0.1 30.5 0.5 29.5 1.1-1 0.6-101 1-277.5 1-176.5 0-276.5-0.4-277.5-1-1-0.6 9.5-1 30.5-1 17.6-0.1 56.5-0.1 86.5-0.2 34.2 0 52.5-0.3 49-0.9-3-0.4-5.9-1.4-6.5-2-0.7-0.9-0.6-1 0.5-0.6 0.8 0.3 4.2 0.8 7.5 1.2 3.7 0.5 8.9 0.2 13.5-0.5 5.2-0.9 10.3-2.7 16.5-5.9 6.8-3.5 10.9-6.5 16.5-12.1 6.2-6.2 8.5-9.3 12.7-18 3.3-6.7 5.8-13.3 6.8-18.3 0.8-4.3 1.5-12.8 1.5-19.5 0-8.2-0.6-14.1-2-20-1.1-4.5-3.2-11-4.6-14.5-1.4-3.4-4.5-9.1-6.9-12.7-2.3-3.6-6.9-9-10.1-12-3.3-3-8.4-6.9-11.4-8.7-3-1.7-8.9-4.1-13-5.4-4.1-1.2-7.8-2.8-8.2-3.6-0.6-0.9-2-1.1-5-0.7-2.4 0.4-4.7 1-5.3 1.5-0.6 0.4-3.7 1.7-7 2.8-3.3 1.2-7 1.9-8.2 1.6-1.4-0.3-3.6 0.4-5.5 1.7-1.8 1.2-3.4 2.5-3.5 2.8-0.1 0.3-3.5 3.9-7.5 8-4.1 4.1-9.4 10.9-11.8 15-2.4 4.1-5.7 11.1-7.3 15.5-1.6 4.6-3.5 12.7-4.3 19-1.1 8.5-1.2 12.9-0.4 19.5 0.6 4.7 2 11.6 3.2 15.5 1.1 3.9 3.2 9.5 4.7 12.5 1.5 3 4.1 7.5 5.8 10 1.6 2.5 6.3 7.6 10.4 11.4 4.1 3.8 8.8 7.6 10.6 8.5 2.6 1.3 3 1.9 2 2.9-0.7 0.7-1.5 1.3-1.9 1.2-0.5 0-2.8-1.4-5.3-3-2.5-1.6-4.3-3.6-4.1-4.3 0.3-0.6-0.9-2.7-2.5-4.5-2.3-2.5-3.5-3.1-5.6-2.7-2.4 0.4-3.2-0.2-5.6-3.8-2-2.9-2.7-4.9-2.3-6.5 0.4-1.4-0.2-3.7-1.7-6.2-1.2-2.1-3-4.1-4-4.5-1-0.3-2.4-2.7-3.5-6q-1.7-5.5-0.7-6.5c0.6-0.6 0.7-2.7 0.1-5.7-0.5-2.7-1.1-5-1.3-5.3-0.1-0.3-0.8 0-1.5 0.7-1 0.9-1.3-0.4-1.3-6.6 0-4.3 0.5-8.4 1.1-9.2 0.7-0.8 1.5-3.4 1.9-5.9 0.4-3.1 0.3-4.7-0.5-5-0.8-0.3-1-2.1-0.6-5.3 0.4-2.9 1.5-5.7 3-7.5 1.3-1.5 2.9-4.1 3.5-5.7 0.9-2.3 0.9-3.2-0.1-3.7-1-0.6-0.4-2.4 2.4-7.5 2.3-4.3 4.4-7 5.8-7.3 1.1-0.3 3.8-2.8 10-10.5l-2.8-0.6c-1.5-0.4-6.4-0.7-11-0.8q-8.2-0.1-8.8-1.4c-0.4-0.7 2.5-4.2 7.2-8.7 4.4-4.1 10.6-9.3 13.9-11.5 3.3-2.2 9.4-5.4 13.5-7.2 4.1-1.8 12.7-4.3 30.5-7.9l0.3-4.5c0.1-2.4 1.4-18.3 2.8-35.4 1.4-17.1 2.7-31.4 2.9-32 0.2-0.6 0.4 0.6 0.4 2.5 0 1.9-0.8 14.5-1.9 28-1.1 13.5-2.3 28.2-3.5 41h11c6.1 0 13.7 0.5 17 1 3.3 0.6 6.8 1.2 7.8 1.5 1.6 0.5 1.7-1.8 1.2-78l-15.3-0.3c-13.8-0.2-15.2 0-15.6 1.5-0.2 1-0.4-0.6-0.6-8.7h-4c-2.2 0-4.3-0.6-4.6-1.3-0.4-0.6 0.7-3 2.3-5.2 1.6-2.2 4.8-5.4 11.5-10l49.4-0.3c32.1-0.1 49.4-0.6 49.4-1.2 0-0.6 0.9-1.9 2-3 1.1-1.1 3.3-2 5-2zm107.5 244c-0.4 1.9-2.3 6.9-4.3 11-2.6 5.3-5.7 9.5-10.7 14.5-3.8 3.9-9 8-11.5 9.2l-4.5 2.3h65c-7-4.4-11.1-7.9-13.6-10.6-2.5-2.7-6-7.8-7.7-11.4-1.8-3.6-4-9.5-4.9-13.3-1.2-4.6-2.3-6.7-3.3-6.7-0.8 0-2 0.4-2.6 0.8-0.6 0.4-1.5 2.3-1.9 4.2zm-167 19.9c-2.7 2.9-7.7 7.2-11 9.4-3.3 2.2-7.8 4.9-10 5.9-3.9 1.7-3.6 1.8 29.5 1.8h33.5c-8.5-4.9-13.5-8.8-16.5-11.9-3.3-3.4-6.9-8.5-9-12.9-2-3.9-3.8-7.2-4.1-7.2-0.3 0-2.1 2.1-4 4.7-1.8 2.7-5.6 7.2-8.4 10.2zm346.8 18.1c10.2 0 14.7 0.4 13.7 1-0.8 0.5-7.7 1-15.3 1-8.5 0-13.7-0.4-13.7-1 0-0.6 5.7-1 15.2-1z"/>
		<path id="Path 1" class="s1" d="m411.4 226.5c0 5.5 0.1 7.5 0.3 4.5 0.2-3 0.2-7.5 0-10-0.2-2.5-0.3 0-0.3 5.5zm-219.9 44.2c-1.6 0.3-3.4 0.9-4 1.3-0.5 0.5-3.7 1.8-7 2.9-3.3 1.2-7 1.9-8.2 1.6-1.4-0.3-3.6 0.4-5.5 1.7-1.8 1.2-3.4 2.5-3.5 2.8-0.1 0.3-3.5 3.9-7.5 8-4.1 4.1-9.4 10.9-11.8 15-2.4 4.1-5.7 11.1-7.3 15.5-1.6 4.6-3.5 12.7-4.3 19-1.1 8.5-1.2 12.9-0.4 19.5 0.6 4.7 2 11.6 3.2 15.5 1.1 3.9 3.4 9.7 5 13 1.6 3.3 3.9 7.4 5 9 1.2 1.6 3.7 4.7 5.7 6.8 2 2.1 3.5 4 3.4 4.2-0.2 0.3-0.1 0.5 0.2 0.5 0.3 0 3.1 2.1 6.3 4.6 3.1 2.5 6.5 4.7 7.5 5 1 0.2 1.4 0.9 1 1.6-0.6 0.9-0.3 1 1 0.5 0.9-0.4 1.9-0.3 2.2 0.3 0.3 0.6 1 0.8 1.5 0.5 0.6-0.3 1 0.1 1 0.7 0 0.7 0.3 1 0.7 0.6 0.5-0.4 1.4 0 2.1 1 0.8 0.9 1 1 0.5 0.2-0.6-1.1-0.4-1.3 0.7-0.8 0.8 0.3 4.2 0.9 7.5 1.3 3.7 0.5 8.9 0.2 13.5-0.5 5.2-0.9 10.3-2.7 16.5-5.9 6.8-3.5 10.9-6.5 16.5-12.1 6.2-6.2 8.5-9.3 12.7-18 3.3-6.7 5.8-13.3 6.8-18.3 0.8-4.3 1.5-12.8 1.5-19.5 0-8.2-0.6-14.1-2-20-1.1-4.5-3.2-11-4.6-14.5-1.4-3.4-4.5-9.1-6.9-12.7-2.3-3.6-6.9-9-10.1-12-3.3-3-8.4-6.9-11.4-8.7-3-1.7-8.9-4.1-13-5.4-4.1-1.3-7.8-2.9-8.2-3.6-0.5-0.7-1.4-1.2-2-1.2-0.7 0.1-2.6 0.4-4.3 0.6zm333.8 104.3c0 4.1 0.2 5.9 0.4 4 0.2-1.9 0.2-5.3 0-7.5-0.2-2.2-0.4-0.6-0.4 3.5zm-466.8 49.7c4.4 0.2 11.4 0.2 15.5 0 4.1-0.1 0.5-0.3-8-0.3-8.5 0-11.9 0.2-7.5 0.3zm29 0c2.8 0.2 6.8 0.2 9 0 2.2-0.2 0-0.3-5-0.3-4.9 0-6.7 0.1-4 0.3zm413.5 0c1.9 0.2 5.3 0.2 7.5 0 2.2-0.2 0.6-0.4-3.5-0.4-4.1 0-5.9 0.2-4 0.4zm23 0c5.8 0.2 15.5 0.2 21.5 0 6-0.1 1.3-0.3-10.5-0.3-11.8 0-16.8 0.2-11 0.3z"/>
		<path id="Path 2" class="s2" d="m350.5 147c-0.3 0.6-1.1 0.7-1.7 0.3q-1.3-0.8-0.5 0.5c0.5 0.9-1.3 1.3-7.5 1.5l-8.3 0.3c16.1 0.4 17.1 0.2 18.2-1.6 0.6-1.1 1-2 0.8-2-0.2 0-0.6 0.4-1 1zm-116.5 1.7c12.9 0.2 34.3 0.2 47.5 0 13.2-0.1 2.6-0.2-23.5-0.2-26.1 0-36.9 0.1-24 0.2zm163.4 28.3c0 8.5 0.2 11.9 0.3 7.5 0.2-4.4 0.2-11.4 0-15.5-0.1-4.1-0.3-0.5-0.3 8zm-199.4-10.1c3 0.5 3.6 1.1 4.1 4.1l0.6 3.5 0.3-8.5-8.5 0.3zm6.6 7c-0.3 0.5-1.7 15-3 32.3-1.4 17.2-2.8 33.9-3.1 37l-0.5 5.8c11.8-1 18.4-0.6 25 0.4 5.8 0.9 10.8 1.6 11.3 1.6 0.4 0 0.7-13.2 0.7-29.3 0-16.1-0.3-33.6-0.7-39l-0.8-9.7c-22 0-28.6 0.4-28.9 0.9zm185.7 35.1c0 4.1 0.2 5.9 0.4 4 0.2-1.9 0.2-5.3 0-7.5-0.2-2.2-0.4-0.6-0.4 3.5zm0.1 25.5c0 4.9 0.1 7.2 0.3 5 0.2-2.2 0.2-6.3 0-9-0.2-2.8-0.3-1-0.3 4zm-252.9 41.5c-4 4-6.5 5.8-7.5 5.4-0.8-0.3-2.2-0.8-3-1.1-0.8-0.2-0.1 0.3 1.5 1.2l3 1.7c10.1-10.3 12.7-13.2 12.5-13.2-0.3 0-3.3 2.7-6.5 6zm356.7 40.2c0.6 1.8 0.8 4.9 0.5 6.8-0.5 2.4-0.3 3 0.3 2 0.9-1.4 1-1.4 1.1 0 0 0.8 0.8-0.3 1.8-2.5 1-2.2 2.1-5.3 2.4-6.8 0.7-2.6 0.6-2.7-3.2-2.7h-4zm-346.2 107.8l-31.5 0.5c50.8 0.3 65.5 0.3 65.5 0 0-0.2-0.6-0.5-1.3-0.7-0.6-0.2-15.3-0.1-32.7 0.2zm-130.4 0.9c-0.3 0.6 0 1.4 0.7 1.8q1.2 0.7 0.5-0.5c-0.6-1 2.9-1.3 16-1.5l16.7-0.3c-27-0.4-33.6-0.1-33.9 0.5zm547.9-0.2c5.5 0.2 9.4 0.8 9.9 1.5q0.8 1.3 0.4-0.3c-0.3-1.2-2.4-1.5-9.8-1.5l-9.5-0.1z"/>
		<path id="Path 3" class="s3" d="m380.5 248.7c1.6 0.2 4.8 0.2 7 0 2.2-0.2 0.9-0.4-3-0.4-3.9 0-5.6 0.2-4 0.4zm-176 179c45.1 0.2 118.4 0.2 163 0 44.6-0.1 7.6-0.2-82-0.2-89.7 0-126.1 0.1-81 0.2zm261 0c8.8 0.2 23.4 0.2 32.5 0 9.1-0.1 1.9-0.3-16-0.3-17.9 0-25.3 0.2-16.5 0.3z"/>
		<path id="Path 4" class="s0" d="m290.6 171.9c-0.3 0.6 1.5 19 4.1 40.8 2.7 21.9 4.9 38.7 5.1 37.3 0.2-1.4-1.5-18-3.8-37-2.2-19-4-36-4-37.8 0-3.2 0-3.2 4.2-2.7 2.4 0.2 15.8 1.2 29.8 2.1 14 0.9 25.7 1.9 26 2.1 0.3 0.3 0.8 2.4 1.1 4.6l0.6 4.2c0.2-6.2-0.1-8.6-0.5-9.3-0.4-0.7-3.6-1.4-7.7-1.7-3.9-0.3-14.7-0.9-24-1.5-9.4-0.6-20-1.3-23.6-1.6-4.3-0.4-6.8-0.2-7.3 0.5zm-81.8 8.8c-0.4 1-1.4 10.1-2.3 20.3-0.8 10.2-1.7 20.9-2 23.7-0.3 2.9-0.2 5.5 0.2 5.7 0.5 0.2 1.2-3.7 1.6-8.7 0.4-5.1 1.5-16.6 2.4-25.5 0.9-9 1.4-16.6 1.2-16.9-0.3-0.2-0.8 0.4-1.1 1.4zm-27.4 120c-2.7 1-6.6 3-8.5 4.4-1.8 1.4-5 4.5-7 7-2 2.4-4.7 6.4-5.9 8.9-1.3 2.5-3.1 7-4.2 10-1 3-2.1 9.1-2.4 13.5-0.4 5.4 0 10.6 1 16 0.9 4.4 2.9 10.7 4.5 14 1.5 3.3 5 8.4 7.7 11.3 2.9 3.2 7.2 6.5 10.4 8 4.4 2.2 7 2.7 13 2.7 6.1 0 8.5-0.5 13-2.7 3-1.5 7.7-4.9 10.5-7.6 2.7-2.7 6.4-7.8 8.2-11.3 1.7-3.5 3.9-9.1 4.7-12.4 0.9-3.4 1.6-10 1.6-15 0-4.9-0.7-11.7-1.6-15-0.9-3.3-3.1-8.9-4.9-12.5-1.8-3.6-5.2-8.5-7.6-10.8-2.4-2.4-6.7-5.5-9.4-6.9-3.4-1.8-7.1-2.7-11.5-3-4.5-0.2-8.1 0.2-11.6 1.4z"/>
		<path id="Path 5" class="s1" d="m245.5 165.7c7.7 0.2 20.5 0.2 28.5 0 8-0.1 1.7-0.3-14-0.3-15.7 0-22.2 0.2-14.5 0.3zm-32.5 6c4.1 0.2 10.7 0.2 14.5 0 3.8-0.1 0.5-0.3-7.5-0.3-8 0-11.1 0.2-7 0.3zm32.8 42.8c-0.2 22.8 0 41.5 0.5 41.5 0.4 0 0.7-18.7 0.7-41.5 0-22.8-0.2-41.5-0.5-41.5-0.2 0-0.6 18.7-0.7 41.5zm94.7 34.2c2.8 0.2 6.8 0.2 9 0 2.2-0.2-0.1-0.3-5-0.3-4.9 0-6.8 0.1-4 0.3zm-138.5 21.9c-0.9 0.4 1.5 1.6 6 3 4.1 1.3 9.8 3.5 12.5 5 2.8 1.6 8 5.7 11.6 9.3 3.6 3.6 8.3 9.3 10.4 12.6 2.1 3.3 5.2 9.1 6.7 13 1.6 3.9 3.8 10.8 4.9 15.5 1.2 5.6 1.9 12.4 1.9 19.8 0 6.4-0.7 14.3-1.6 18.5-0.8 3.9-2.7 10.1-4.1 13.7-1.5 3.6-4.2 9.2-6.2 12.5-1.9 3.3-6.7 9.2-10.6 13-4.4 4.4-9.6 8.4-14 10.7-3.8 2-9.5 4.3-12.5 5.2-3 0.8-6.8 1.7-8.5 2-1.7 0.2 2.4 0.3 9 0.1 8.8-0.2 13.7-0.8 18.5-2.3 3.6-1.2 9.4-3.8 12.9-5.9 3.5-2.1 9.4-6.7 13-10.3 3.7-3.6 8.1-8.5 9.8-11 1.7-2.5 4.2-6.5 5.6-9 1.3-2.5 3.6-7.6 5-11.5 1.4-3.9 3.1-11 3.7-16 0.8-5.5 1-12.3 0.5-17.5-0.3-4.7-1-9.7-1.3-11.3-0.5-1.8-1.7-3.1-3.7-3.8-1.6-0.5-4.4-2-6-3.3-2-1.4-4.2-5-6.3-10.2-1.9-4.3-4.9-10.6-6.7-13.9-1.8-3.3-5.7-8.7-8.7-12-3.1-3.3-7.7-7.2-10.4-8.7-2.7-1.5-7.6-3.6-10.9-4.8-3.3-1.1-8.9-2.3-12.5-2.5-3.6-0.3-7.2-0.2-8 0.1zm241.2 12.9c-0.4 0.8-0.3 1.9 0.1 2.3 0.4 0.4 0.7-0.1 0.7-1 0-1.7 1.6-1.8 19-1.8h19v7l-38.5 0.5 39.5 0.5-0.5-8.5c-35.7-0.5-38.6-0.3-39.3 1zm7.8 9.2c4.1 0.2 10.6 0.2 14.5 0 3.9-0.1 0.5-0.3-7.5-0.3-8 0-11.1 0.2-7 0.3zm-73 9.2l-5.5 0.6c5.4 2.5 9.1 4.8 11.8 6.9l4.7 3.6c17.8 0 23-0.3 23-0.7 0-0.5-1.9-2.3-4.2-4.2-2.4-1.9-5.8-4.1-7.5-4.8-1.8-0.7-6.3-1.5-10-1.7-3.8-0.2-9.3-0.1-12.3 0.3zm74.5-0.2c4.9 0.2 12.6 0.2 17 0 4.4-0.1 0.4-0.3-9-0.3-9.4 0-12.9 0.2-8 0.3zm31.9 1.6c-0.3 0.6-0.4 2.3-0.2 3.7 0.3 2.4 0.7 2.5 8.1 3 4.9 0.3 7.6 0.1 7.3-0.5-0.1-0.5-3-2.5-6.2-4.2-3.2-1.8-6.5-3.3-7.2-3.3-0.7 0-1.5 0.6-1.8 1.3zm-28.4 10.4c4.7 0.2 12.6 0.2 17.5 0 4.9-0.1 1.1-0.3-8.5-0.3-9.6 0-13.7 0.2-9 0.3zm-8.6 5.5l0.1 3.3c26 0.4 34 0.2 34.5-0.2 0.5-0.5-6.9-0.7-16.5-0.5l-17.5 0.2c-0.7-5.8-0.7-5.8-0.6-2.8zm-68.4 0c3 1.3 6.9 3.3 8.5 4.5 1.6 1.2 4.9 4.1 7.2 6.5 2.3 2.4 5.7 7.2 7.7 10.8 1.9 3.6 4.5 10.1 5.6 14.5 1.3 5 2 11.2 2 16.5 0 5.5-0.7 11.2-2.1 16-1.1 4.1-3.5 10.2-5.4 13.5-1.8 3.3-5.1 8-7.2 10.5-2.2 2.5-6.4 6.1-9.4 8-4.1 2.7-4.9 3.6-3.4 3.8 1.1 0.2 5.1-1.2 9-3.2 3.9-1.9 9.5-5.9 12.8-9 3.1-3.1 6.9-7.7 8.4-10.3 1.5-2.7 3.8-7.7 5.1-11.3 1.3-3.6 2.6-9.9 2.9-14 0.3-4.4 0-10.6-0.7-15-0.8-4.7-2.8-10.4-5.3-15.5-2.9-5.7-6-10-11.1-15.1-4.1-4.1-9.4-8.2-12.6-9.7-3.2-1.6-8-3-11.5-3.3l-6-0.5zm-21.6 1.5c-2.7 1-7.6 3.7-10.7 6-3.1 2.4-7.7 7.1-10.1 10.5-2.4 3.5-5.4 8.3-6.6 10.8-1.2 2.4-3.1 7.8-4.1 12-1.1 4.1-1.9 10.6-1.9 14.5 0 3.8 0.7 9.7 1.5 13 0.9 3.3 3 8.9 4.7 12.5 2 4.2 5.5 8.8 9.7 13 3.6 3.5 6.4 6.8 6.3 7.2-0.1 0.4 0.1 0.6 0.6 0.3 0.4-0.2 3.4 0.5 6.7 1.6 3.4 1.2 8.6 2.1 12 2 3.8 0 8.2-0.8 12-2.3 3.3-1.2 8.1-4 10.8-6 2.6-2.1 6.1-5.7 7.8-8.1 1.7-2.3 4.4-6.9 6-10.2 1.5-3.3 3.5-8.7 4.4-12 0.8-3.3 1.5-9.6 1.5-14 0-4.4-0.7-11-1.6-14.5-0.8-3.6-2.8-9.3-4.5-12.8-1.6-3.4-5.5-9-8.6-12.3-3.2-3.4-8.3-7.5-11.3-9.2-4.4-2.5-6.9-3.2-12.5-3.5-4.9-0.2-8.5 0.2-12.1 1.5zm-60.8 3c-0.5 0.4-2.9 1.3-5.5 1.9l-4.6 1.1c0.5 44 1 57.1 1.4 57.4 0.3 0.4 8.2 0.4 17.6 0.1l17-0.5 0.4-60.7c-19.8 0-25.9 0.3-26.3 0.7zm159.9 1c4.9 0.2 12.6 0.2 17 0 4.4-0.2 0.4-0.3-9-0.3-9.4 0-12.9 0.1-8 0.3zm25.5 2.8v3.5l-15.5 0.6 16.5 0.4c0-6.2-0.2-8-0.5-8-0.3 0-0.5 1.5-0.5 3.5zm-18.2 6.2l-8.8 0.3c0 18.6-0.4 22.1-1.5 23.7l-1.5 2.3c44.7-0.5 51.2-0.9 52.2-1.8 0.8-0.8 1.4-4.4 1.6-9 0.3-6.4-0.1-8.3-1.7-11-1.4-2.2-3.3-3.6-5.9-4.2-2-0.6-8.6-0.9-14.7-0.8-6.1 0.1-14.9 0.3-19.8 0.5z"/>
		<path id="Path 6" fill-rule="evenodd" class="s4" d="m261.4 150.8c24.3 0.2 44.2 0.4 44.3 0.5 0 0.1 0.3 3 0.8 12.8l-55-0.1c-30.2 0-55.1-0.2-55.2-0.3-0.1-0.1 1-1.9 2.5-4 1.5-2.2 4.3-4.8 6.2-6 1.9-1.1 5.5-2.3 7.9-2.6 2.4-0.3 24.2-0.5 48.5-0.3zm60.1 0.2h5.5c3 0 9.2 0.3 22 1.5v14.5h-4.7c-2.7 0-8.9-0.3-23.1-1.5zm-112.8 99c5.1 0 12.5 0.6 16.5 1.4 4 0.8 10.7 2.6 14.8 4 4.1 1.4 10.8 4.5 14.9 6.9 4 2.3 11.2 7.8 16 12.3 4.7 4.4 11 11.6 14.1 16 3 4.3 7.1 11.7 9.2 16.4 2 4.7 3.8 9.6 4 10.9 0.2 1.8-0.5 2.9-2.7 4.2-1.7 1-5.9 2.2-9.5 2.5-3.6 0.4-8.8 0.3-11.5-0.1-4-0.5-5.7-1.5-8.5-4.4-2-2.1-4.9-7.1-6.7-11.7-1.8-4.3-5.4-11.3-8.1-15.4-2.7-4.1-7.8-10.5-11.3-14.1-3.5-3.6-9.3-8.5-12.9-10.9-3.6-2.4-9.2-5.6-12.5-7.1-3.3-1.5-9.2-3.3-13-4-5.5-1-8.6-1-14.5-0.1-4.1 0.7-10.4 2.1-14 3.3-3.6 1.1-9.2 3.4-12.5 5.1-3.3 1.7-8.5 4.7-11.5 6.7-3 2.1-6.2 4.1-7 4.5-0.8 0.4 1-1.6 4.1-4.6 3-2.9 8.2-6.9 11.5-8.8 3.2-1.9 9.7-4.8 14.4-6.4 7.2-2.4 10.1-2.8 19.5-2.9 8.3 0 12.9 0.5 18.7 2.1 4.3 1.2 9.7 3.2 12 4.3 2.4 1.2 7.2 4.1 10.8 6.5 3.6 2.3 9.7 7.6 13.6 11.6 3.9 4 9.3 10.7 12 14.8 2.7 4.1 5.7 9.6 6.6 12.2 1 2.7 2.2 4.8 2.8 4.8 0.5 0 1-0.3 1-0.8 0-0.4-1.7-4.1-3.8-8.2-2.1-4.1-5.3-9.8-7.2-12.5-1.9-2.8-5.7-7.4-8.5-10.4-2.7-2.9-7.5-7.2-10.5-9.5-3-2.4-8-5.6-11-7.4-3-1.7-7.5-3.8-10-4.7-2.5-1-7-2.3-10-3.1-3-0.7-6.9-1.4-8.5-1.4-2.3 0-2.7-0.3-1.5-1 0.8-0.5 5.6-1 10.7-1zm138.3 0.1c6.9 0 19.9 0.4 29 0.8 14.1 0.7 17 1.1 20 3 1.9 1.1 4.6 2.1 6 2.1 1.4-0.1 4.1-1 6-2.2 3.4-2.2 3.7-2.2 20.5-0.9 9.3 0.7 20.1 1.8 24 2.5 3.8 0.8 9.2 2.3 12 3.5 2.7 1.2 6.9 3.8 9.2 5.7 2.4 1.9 5.2 5.2 6.3 7.4 1.1 2.2 2 4.9 2 6 0 1.9-0.7 2-38 2l-2.4-4.3c-1.3-2.3-4.3-5.9-6.7-8-2.4-2.1-6.8-4.7-9.7-5.7-3.9-1.5-7.8-2-15.5-2-6.2 0-9.8 0.3-9.2 0.9 0.5 0.5 5.7 1.1 11.5 1.3 8 0.3 11.5 0.9 15 2.6 2.5 1.2 6.2 3.8 8.4 5.9 2.1 2.1 4.5 5.3 5.2 7 1 2.3 1.4 7.7 1.4 17.3 0 10.6-0.3 14-1.3 13.9-0.7-0.1-2-0.1-3 0-0.9 0-2.6 1.1-3.7 2.3-1.6 1.8-2 3.7-2 8.5 0 5.4 0.4 6.7 2.5 8.8 1.5 1.6 3.6 2.5 5.5 2.5 2 0 3.5-0.8 4.7-2.5 1-1.3 2.1-2.1 2.6-1.7 0.4 0.4 0.7 1.7 0.7 2.9 0 2-0.6 2.3-4.3 2.4-2.3 0-6 0-8.2-0.1-2.2 0-4.9 0.5-5.9 1.2-1.6 1.1-1.9 2.8-2.1 26.3h-2.9c-2.6 0-3-0.5-4.5-5.5-1-3-3.3-8.4-5.1-12-1.9-3.6-6.4-9.5-10-13.2-4-4.1-8.6-7.6-12-9.2-3-1.4-8-3-11-3.5-3-0.5-7.4-0.6-9.8-0.3-2.6 0.4-4.2 0.3-4.2-0.3 0-0.6 2.2-2.5 4.8-4.2 2.6-1.8 5.1-3.3 5.7-3.3 0.5 0.1 2.9 1.6 9.5 7h13.5c8 0 13.7-0.4 14-1 0.3-0.6-1.2-2.7-3.3-4.7-2-2-5.7-4.9-8.2-6.5-4.5-2.8-4.7-2.8-20-2.8-8.5 0-18.2 0.6-21.5 1.3-3.3 0.7-8 2.4-10.5 3.8-2.5 1.4-7.2 5.6-10.5 9.3-5.4 5.9-6.4 6.6-9.8 6.6-2.1 0-3.9-0.6-4.2-1.3-0.2-0.6-1.6-13.2-3-28-1.4-14.7-2.5-27.4-2.5-28.2 0-1.3 3-1.5 20.7-1.5 11.7 0 21.4-0.5 22.3-1 1.1-0.8 0.8-1-1.5-1.1-1.7 0-11.7 0-22.3 0-17.7 0.1-19.2 0-19.2-1.7 0-0.9 0.5-2.5 1.3-3.6 0.7-1 3.5-2.4 6.2-3.1 2.9-0.8 10.3-1.4 17.5-1.4zm18.7 51.9c0.7 0 1.3 0.3 1.3 0.7 0 0.5-2 1.4-4.5 2-2.5 0.7-7.4 3.1-11 5.3-3.6 2.2-6.7 4-7 4-0.3 0-0.3-0.5 0-1 0.3-0.6 2.6-2.5 5.2-4.2 2.6-1.8 7-4 9.8-5 2.7-1 5.5-1.8 6.2-1.8zm86.8 32.5l0.3 10c0.3 8.7 0.1 10.3-1.7 12.5-1.8 2.3-2.6 2.5-22.1 3v-11.3c0-6.3 0.5-11.7 1.1-12.4 0.5-0.6 2.4-1.3 4.2-1.6 1.8-0.2 6.6-0.4 18.2-0.2z"/>
		<path id="Path 7" class="s5" d="m246.3 165.8l-41.3 0.2v5.5c22.1-0.4 29.1-0.2 29.8 0.2 1.1 0.6 1.3 8.6 1.2 40.3l-0.1 39.5c6.7 2.7 8.9 3.5 9.3 3.5 0.5 0 0.8-18.3 0.8-40.8 0-30.6 0.3-41 1.2-42 0.8-0.8 5.5-1.2 15.8-1.2 10.6-0.1 14.8 0.3 15.7 1.2 0.6 0.7 2.5 11.6 4.2 24.3 1.7 12.6 3.1 23.6 3.1 24.2 0 0.7 1.1 1.5 2.5 1.8 1.4 0.3 2.5 1.2 2.5 2 0 0.8-0.9 2.1-2 2.7-2 1.3-2 1.5 3 38.3 2.8 20.4 4.9 37.9 4.6 39-0.2 1.1 0.7 5.3 2 9.2l2.4 7.3c23.8 0 24 0 24-2.3 0-1.2-1-13-2.1-26.2-1.2-13.2-2.7-24.6-3.3-25.3-0.6-0.7-1.9-1.3-2.9-1.2-0.9 0-4.6-1.6-8.2-3.5-3.6-1.9-6.5-3.2-6.5-2.8 0 0.5 0.9 7.8 2 16.3 1.1 8.5 2.2 17 2.5 18.7 0.3 1.9 0.1 3.3-0.5 3.3-0.6 0-1.2-0.8-1.5-1.8-0.2-0.9-1.8-13.4-3.5-27.7-1.7-14.3-3.6-29.8-4.1-34.5-0.5-4.7-2.3-19.4-3.9-32.8-1.7-13.3-3-25.6-3-27.2 0-2.9 0.2-3 4.2-3 2.4 0 15.3 0.7 28.8 1.5 13.5 0.8 26 1.7 27.7 2 3.2 0.5 3.3 0.7 3.9 6.2 0.3 3.2 2.1 15.5 3.9 27.3 1.9 11.8 4 25.9 4.7 31.3 1.3 9.6 1.3 9.7 4 9.7 2 0 2.8-0.5 2.8-1.8 0-0.9-0.4-4.2-1-7.2-0.6-3-2.4-14.1-4-24.5-1.6-10.5-3.6-24-4.5-30-0.9-6.1-1.8-11.8-2-12.8-0.3-1-1.4-1.7-2.8-1.7-1.2 0-2.6-0.3-3-0.7-0.5-0.4-10.8-1.4-23-2.1-12.2-0.6-26.7-1.5-32.1-2-5.5-0.4-28.5-0.6-51.3-0.5zm197.7 120.8v3.5h38v-7h-38zm14.2 6.2l-14.2 0.3v8h38v-9c-7.4 0.3-15.9 0.6-23.8 0.7zm-13.7 10.9c-0.4 0.4-0.8 1.9-0.7 3.3 0.1 1.4 0.7 3.2 1.4 3.9 0.9 0.9 5.1 1.2 14.3 1.2 7.1 0 15.4-0.4 18.3-0.8l5.3-0.7-0.6-7c-28.8-0.4-37.5-0.2-38 0.1zm2.8 11.9c0.4 0.8 0.7 2.6 0.7 4v2.5h34v-8c-33 0-35.2 0.2-34.7 1.5zm17.1 9.5l-17 0.5 1.8 7c25-1.3 32.4-1.7 32.6-1.8 0.1-0.1 0.1-1.6 0-3.2l-0.3-3zm-165.4 62c0 0.6 1.7 2.4 3.7 4.2 2.1 1.7 5.2 3.7 7 4.5 1.8 0.7 5.2 1.3 7.5 1.3 2.4 0 5.2-0.6 6.3-1.4 1.8-1.3 1.9-1.7 0.7-5.5l-1.2-4.1c-19.4 0-24 0.4-24 1z"/>
		<path id="Path 8" class="s2" d="m248.6 174.3c-0.2 0.6-0.3 19.4-0.2 41.6l0.1 40.4c13.9 8.6 21.3 14.3 25.4 18.2 4 3.8 9.3 9.7 11.6 13 2.3 3.3 5.2 7.9 6.4 10.2 1.1 2.4 2.3 4.2 2.5 4 0.3-0.1-1-10.6-2.9-23.2-1.8-12.6-4.1-29.2-5.2-36.8l-1.8-13.7c-8.4 0.1-10.4-0.4-11.2-1.5-1-1.2-1-1.8 0-3 0.8-1.1 2.8-1.6 6-1.5 4.6 0 4.7-0.1 4.2-2.8-0.3-1.5-1.7-12.2-3.1-23.7-1.4-11.6-2.8-21.3-3-21.8-0.2-0.4-6.7-0.7-14.4-0.7-10.4 0-14.1 0.3-14.4 1.3zm43.5-0.2c0 0.8 0.8 8.6 1.9 17.4 1 8.8 3.1 26.3 4.5 39l2.6 23c5 5 9.1 7.6 12.4 9l6 2.4c0.8-7.4 1.7-10.4 2.5-11.4 0.8-0.9 2.9-2.5 4.5-3.4 2.4-1.3 6.1-1.6 19.2-1.6 14.9 0 16.3-0.2 16.3-1.8 0-0.9-1.4-10.6-3.1-21.5-1.6-10.8-3.9-26-5-33.7-1-7.7-2.2-14.2-2.5-14.5-0.3-0.3-8.7-1-18.7-1.6-10-0.7-23.2-1.5-29.3-1.9-9.1-0.7-11.1-0.5-11.3 0.6zm189.2 192.1c0.4 2.4 0.3 5.9-0.1 7.8-0.6 2.6-1.6 3.9-4.2 5.3-2 0.9-7.3 2-12.3 2.5-6.8 0.5-8.7 1-8.7 2.2 0 0.8 0.9 3.3 1.8 5.5 1 2.2 3.8 5.7 6.3 7.8 2.8 2.3 5.9 3.9 8.4 4.4 3.1 0.4 5.1 0 9-1.8 3.7-1.8 5.7-3.6 8-7.3 2.6-4.3 3-6.1 3.4-13.5 0.2-4.7-0.2-10.5-0.8-12.9l-1.1-4.2h-10.3zm-208.8 57.8l-25 0.5c40.7 0.4 52.5 0.3 52.4 0.1 0-0.3-0.5-0.6-1.2-0.8-0.7-0.2-12.5-0.1-26.2 0.2zm61.9 0.2c-0.2 0.4 4 0.8 9.3 0.8 5.4 0 9.6-0.2 9.3-0.6-0.3-0.3-4.5-0.6-9.4-0.7-4.8-0.2-9 0.1-9.2 0.5zm108.1 0.5c2.2 0.2 6 0.2 8.5 0 2.5-0.2 0.7-0.4-4-0.4-4.7 0-6.7 0.2-4.5 0.4z"/>
		<path id="Path 9" class="s3" d="m309.9 146.7c-0.9 1-1.4 4.2-1.4 8.8 0 5 0.5 7.7 1.5 8.9 0.8 0.9 2.4 1.7 3.5 1.7 1.1-0.1 2.9-0.7 4-1.5 1.7-1.2 2-2.5 1.9-8.3 0-3.7-0.6-7.8-1.2-9-0.8-1.6-2.1-2.3-4.1-2.3-1.6 0-3.5 0.7-4.2 1.7zm43 1.9c-0.7 0.9-1.4 4.4-1.7 7.8-0.2 3.3 0.1 7.3 0.7 8.9 0.7 1.7 2.1 2.9 3.9 3.3 2 0.4 3.2 0.1 4.7-1.5 1.7-1.8 2-3.4 1.8-9.4-0.2-6.2-0.5-7.5-2.5-9-1.3-1-3-1.8-3.9-1.7-0.9 0-2.3 0.7-3 1.6zm82.6 164.6c-1.1 1.4-1.7 4-1.6 6.8 0 2.5 0.8 5.5 1.6 6.8 0.9 1.3 2.5 2.2 4 2.2 1.5 0 3.1-0.9 4-2.2 0.8-1.3 1.5-4.3 1.5-6.8 0-2.5-0.7-5.5-1.5-6.7-0.9-1.4-2.5-2.3-4-2.3-1.3 0-3.1 1-4 2.2zm50 1.1c-1.3 1.7-1.5 3.3-0.8 7.1 0.5 2.8 1.5 5.4 2.5 6 1.4 0.9 2.1 0.7 3.5-0.7 1.3-1.2 1.8-3.3 1.8-6.8 0-3.9-0.5-5.4-2-6.5-1.1-0.8-2.3-1.4-2.7-1.4-0.4 0-1.5 1-2.3 2.3zm-146.1 107.3l-3.9 2.4c12.4 0 15.8-0.1 15.5-0.3-0.3-0.2-2.1-1.3-4.1-2.5l-3.5-2.1zm-102 3.2c1.7 0.2 4.8 0.2 7 0 2.2-0.2 0.9-0.4-3-0.4-3.8 0-5.6 0.2-4 0.4zm177.5 0c4.7 0.2 12.1 0.2 16.5 0 4.4-0.2 0.6-0.3-8.5-0.3-9 0-12.6 0.1-8 0.3z"/>
		<path id="Path 10" class="s0" d="m380.3 259.6c-1.3 0.2-2.1 0.8-1.8 1.4 0.3 0.5 3.4 1 7 1 3.7 0 6.5-0.4 6.5-1 0-0.6-1-1.2-2.3-1.5-1.2-0.3-3.3-0.4-4.7-0.4-1.4 0.1-3.5 0.3-4.8 0.5zm-87.7 68c-0.4 0.4-0.8 5.8-0.7 12.1l0.2 11.3c5 0.9 10.6 1 15.5 0.8l9-0.3v-24c-17.9-0.4-23.5-0.2-24 0.1zm65.5 13.3c-1.9 1-5.2 3.8-7.3 6.2-2.1 2.4-4.7 6.9-5.8 9.9-1.2 3-2.3 8.6-2.6 12.5-0.4 4.8 0 9 1.1 13.5 0.9 3.6 3 8.5 4.7 11 1.7 2.5 4.9 5.8 7.2 7.4 2.4 1.7 6 3.2 8.2 3.4 2.2 0.3 5.8 0.1 8-0.3 2.9-0.5 5.4-2.1 9.1-5.9 4.3-4.2 5.5-6.3 7.4-12.6 1.9-6.1 2.2-9.1 1.8-16.5-0.3-6.9-1-10.3-2.9-14.5-1.4-3-3.9-7-5.5-8.9-1.6-1.8-4.6-4.2-6.7-5.2-2.1-1.1-5.7-1.9-8.5-1.9-2.6 0.1-6.3 0.9-8.2 1.9zm-54.8 15.8l-11.2 0.3 0.5 22.5h24c0-18.3-0.4-22.9-1-22.9-0.6-0.1-6.1 0-12.3 0.1z"/>
		<path id="Path 11" class="s2" d="m185 301.9c-1.4 0.4-4.5 1.8-6.8 2.9-2.3 1.2-6.1 4.1-8.4 6.5-2.4 2.4-5.7 7-7.5 10.3-1.7 3.2-3.9 8.8-4.9 12.4-0.9 3.6-1.7 10.3-1.7 15 0 4.9 0.7 11.3 1.7 15 0.9 3.6 2.9 8.8 4.4 11.5 1.5 2.8 4.8 7.1 7.5 9.8 2.6 2.6 6.8 5.7 9.4 6.9 3.3 1.5 6.9 2.2 11.3 2.2 5.1 0.1 7.7-0.5 12-2.6 3-1.5 7.8-5.1 10.6-8 2.8-2.9 6.1-7.3 7.4-9.8 1.2-2.5 2.9-6.5 3.7-9 0.8-2.5 1.6-8.8 2-14 0.4-7 0.1-11.3-1.1-16.5-1-3.9-3.1-9.7-4.7-13-1.7-3.3-4.9-7.9-7.2-10.3-2.3-2.3-6.5-5.4-9.2-6.9-3.2-1.7-7-2.7-10.5-2.9-3-0.2-6.6 0-8 0.5z"/>
		<path id="Path 12" class="s0" d="m188.8 339.3c-1 0.6-2.2 2.4-2.8 3.9-0.7 1.9-0.7 4.1 0 6.8 0.6 2.5 1.8 4.4 3.2 5.1 1.3 0.6 3.5 0.8 5 0.5 1.8-0.4 3.4-1.8 4.4-3.9 1-2 1.4-4.3 1-6.2-0.4-1.6-1.3-4-2.1-5.3-1-1.4-2.5-2.2-4.3-2.2-1.5 0-3.5 0.6-4.4 1.2z"/>
		<path id="Path 13" class="s5" d="m180.3 314.8c-3.2 1.8-6.4 4.7-8.6 7.8-1.9 2.7-4.4 8-5.6 11.9-1.3 4.2-2.1 9.7-2.1 13.7 0 3.8 0.8 9.4 1.8 12.5 1 3.2 2.9 7.8 4.4 10.3 1.4 2.5 4.5 6.3 7 8.5 2.4 2.2 6.4 4.6 8.9 5.3 2.4 0.8 5.3 1.2 6.4 1 1.1-0.1 2.1-1.1 2.2-2.1 0.2-0.9-0.3-1.9-1-2.1-0.6-0.3-2.8-0.7-4.7-1-1.9-0.3-5.6-2.1-8.3-4.1q-4.7-3.5-7.2-8.8c-1.4-2.8-3.2-8-4-11.5-1.2-5-1.3-7.6-0.4-13.5 0.6-3.9 2.1-9.2 3.2-11.7 1.2-2.5 4.2-6.6 6.7-9.2 3.8-3.9 5.3-4.7 9.5-5.3 2.7-0.4 5.6-0.8 6.2-1.1 0.7-0.2 1.3-1.1 1.3-1.9 0-1.1-1.2-1.5-5.3-1.5-3.8 0-6.6 0.8-10.4 2.8zm30.7 14.9c-0.1 1 0.6 2.5 1.5 3.3q1.6 1.5 2.6 0.5c0.6-0.6 0.8-2 0.5-3.3-0.4-1.3-1.4-2.2-2.6-2.2-1.2 0-2 0.7-2 1.7zm-0.5 37c-0.5 0.3-0.8 1.9-0.7 3.5 0.1 1.7 0.8 2.8 1.7 2.8 0.8 0 1.7-0.7 2-1.5 0.3-0.8 0.5-2.4 0.5-3.5 0-1.1-0.6-2-1.3-2-0.8 0-1.7 0.3-2.2 0.7z"/>
		<path id="Path 14" class="s2" d="m359.5 342.4c-1.6 0.7-4.9 3.5-7.3 6.2-3.1 3.5-4.9 6.8-6.4 11.9-1.6 5.4-2 8.7-1.6 14.5 0.4 5.8 1.2 9.1 3.9 14.5 2.8 5.7 4.4 7.6 8.4 10.3 3.9 2.6 6 3.3 9.8 3.2 2.6 0 5.9-0.6 7.4-1.4 1.6-0.8 4.2-2.9 6-4.8 1.8-1.8 4.2-5.5 5.5-8.3 2-4.3 2.3-6.5 2.2-16.5 0-9.4-0.4-12.3-2.1-16-1.1-2.5-3.3-6-4.9-7.9-1.6-1.9-4.7-4.3-6.9-5.2-2.2-1-5.6-1.8-7.5-1.8-1.9 0-4.9 0.6-6.5 1.3z"/>
		<path id="Path 15" class="s0" d="m365 367c-0.9 0.5-1.9 2.1-2.3 3.5-0.4 1.4-0.3 3.6 0.3 5 0.6 1.4 2 2.8 3.3 3.1 1.6 0.5 2.7 0 4-1.7 1-1.3 1.8-3.4 1.7-4.7 0-1.2-0.9-3.1-2-4.2-1.1-1.1-2.3-2-2.8-2-0.4 0-1.4 0.5-2.2 1z"/>
	</g>
</svg>